<?xml version="1.0" encoding="UTF-8" standalone="no"?>
<!-- Created with Inkscape (http://www.inkscape.org/) -->

<svg
   xmlns:dc="http://purl.org/dc/elements/1.1/"
   xmlns:cc="http://creativecommons.org/ns#"
   xmlns:rdf="http://www.w3.org/1999/02/22-rdf-syntax-ns#"
   xmlns:svg="http://www.w3.org/2000/svg"
   xmlns="http://www.w3.org/2000/svg"
   version="1.1"
   width="192"
   height="192"
   id="svg11031">
  <defs
     id="defs11033" />
  <metadata
     id="metadata11036">
    <rdf:RDF>
      <cc:Work
         rdf:about="">
        <dc:format>image/svg+xml</dc:format>
        <dc:type
           rdf:resource="http://purl.org/dc/dcmitype/StillImage" />
        <dc:title></dc:title>
      </cc:Work>
    </rdf:RDF>
  </metadata>
  <g
     transform="translate(-285.80436,-368.83936)"
     id="layer1">
    <path
       d="m 452.72263,535.09266 c 1.30208,0 2.41151,0.4627 3.33345,1.37604 0.91163,0.91507 1.36916,2.01762 1.36916,3.31281 0,1.3038 -0.45753,2.41151 -1.36916,3.33001 -0.91506,0.92023 -2.02621,1.37776 -3.33345,1.37776 -1.30723,0 -2.41322,-0.45753 -3.32829,-1.37776 -0.9099,-0.9185 -1.364,-2.02621 -1.364,-3.33001 0,-1.29519 0.45582,-2.39774 1.37088,-3.31281 0.91851,-0.91334 2.02622,-1.37604 3.32141,-1.37604 m 5.44395,4.67853 c 0,-1.49644 -0.53149,-2.77787 -1.59276,-3.83054 -1.06471,-1.05955 -2.34959,-1.58933 -3.85635,-1.58933 -1.49988,0 -2.77787,0.52978 -3.83398,1.58933 -1.06299,1.05783 -1.59449,2.33926 -1.59449,3.83054 0,1.51192 0.52462,2.7968 1.57729,3.85979 1.05955,1.06987 2.3427,1.59964 3.85118,1.59964 1.50676,0 2.79164,-0.52977 3.85635,-1.59964 1.06127,-1.06815 1.59276,-2.35303 1.59276,-3.85979 m -4.03179,-1.16447 c 0,0.45237 -0.20468,0.76026 -0.6175,0.9185 -0.2236,0.0929 -0.55901,0.13073 -1.00622,0.13073 l -0.95291,0 0,-2.13286 0.9013,0 c 0.5831,0 1.01139,0.0774 1.278,0.22189 0.26489,0.14448 0.39733,0.43345 0.39733,0.86174 m -3.61726,-1.82497 0,5.95996 1.04063,0 0,-2.34442 0.82562,0 c 0.55386,0 0.94259,0.0671 1.16103,0.19264 0.37325,0.22189 0.56246,0.67426 0.56246,1.36228 l 0,0.47129 0.0224,0.19265 c 0.003,0.0241 0.009,0.0482 0.0155,0.0671 0.005,0.0189 0.009,0.0378 0.0138,0.0585 l 1.01311,0 -0.043,-0.0722 c -0.0292,-0.0533 -0.0482,-0.1548 -0.0568,-0.31305 -0.012,-0.15824 -0.0172,-0.30273 -0.0172,-0.44377 l 0,-0.43173 c 0,-0.30445 -0.10837,-0.60718 -0.32337,-0.92539 -0.21329,-0.31305 -0.55386,-0.50913 -1.01827,-0.58137 0.37325,-0.0585 0.66222,-0.15481 0.87206,-0.28897 0.39217,-0.25113 0.58654,-0.64502 0.58654,-1.17995 0,-0.7465 -0.30789,-1.25048 -0.92539,-1.50676 -0.34745,-0.14449 -0.8927,-0.21673 -1.63232,-0.21673 l -2.09674,0 z"
       id="path7528"
       style="fill:#000000;fill-opacity:1;fill-rule:nonzero;stroke:none" />
    <path
       d="m 470.50327,476.70136 c 6.67379,-48.85793 -27.52591,-93.87673 -76.38385,-100.54707 -48.85105,-6.68066 -93.87329,27.51731 -100.54707,76.37697 -6.67894,48.85278 27.52247,93.87329 76.37697,100.5488 48.85794,6.67722 93.87845,-27.52248 100.55395,-76.3787"
       id="path7532"
       style="fill:#ffffff;fill-opacity:1;fill-rule:nonzero;stroke:none" />
    <path
       d="m 475.38649,477.36805 c 3.40569,-24.9338 -3.10125,-49.7042 -18.32538,-69.74102 -15.22414,-20.04199 -37.33879,-32.95095 -62.27431,-36.35664 -24.92864,-3.40913 -49.69388,3.09608 -69.73243,18.31506 -20.04543,15.22586 -32.95954,37.3405 -36.36523,62.27947 -3.40742,24.92864 3.09608,49.69216 18.31678,69.73415 15.22413,20.04198 37.3405,32.9561 62.27602,36.36523 51.47241,7.03499 99.06956,-29.12212 106.10455,-80.59625 m -104.76807,70.82982 c -22.32793,-3.05308 -42.13083,-14.61696 -55.76221,-32.56393 -13.62793,-17.94181 -19.45201,-40.11666 -16.40065,-62.43599 3.05137,-22.32793 14.61352,-42.12911 32.5605,-55.7622 17.94181,-13.62622 40.11493,-19.4503 62.43426,-16.39893 22.32622,3.04964 42.12912,14.60836 55.76049,32.55361 13.63138,17.94181 19.45889,40.11666 16.40925,62.44459 -6.29881,46.08866 -48.91642,78.45995 -95.00164,72.16285"
       id="path7536"
       style="fill:#ffffff;fill-opacity:1;fill-rule:nonzero;stroke:none" />
    <path
       d="m 470.50327,476.70136 c 6.67379,-48.85793 -27.52591,-93.87673 -76.38385,-100.54707 -48.85105,-6.68066 -93.87329,27.51731 -100.54707,76.37697 -6.67894,48.85278 27.52247,93.87329 76.37697,100.5488 48.85794,6.67722 93.87845,-27.52248 100.55395,-76.3787"
       id="path7540"
       style="fill:#ffffff;fill-opacity:1;fill-rule:nonzero;stroke:none" />
    <path
       d="m 472.33495,476.95146 c 3.29561,-24.12022 -3.00148,-48.07876 -17.72852,-67.46197 -14.72361,-19.38321 -36.11755,-31.87247 -60.23777,-35.16636 -24.11162,-3.29733 -48.06672,2.99288 -67.45165,17.71648 -19.38837,14.72533 -31.88107,36.11755 -35.17496,60.24121 -3.29733,24.11162 2.9946,48.06844 17.7182,67.45165 14.72533,19.38837 36.11755,31.88279 60.23949,35.18012 49.78849,6.80279 95.83071,-28.17093 102.63521,-77.96113 m -102.13467,74.29743 c -23.14324,-3.16144 -43.66856,-15.14845 -57.79703,-33.75076 -14.12502,-18.59715 -20.16239,-41.58214 -16.99922,-64.71677 3.16144,-23.14324 15.14673,-43.67028 33.74904,-57.79702 18.59715,-14.12503 41.58214,-20.16412 64.71505,-16.99923 23.14152,3.15973 43.66856,15.14329 57.79531,33.74044 14.13018,18.59887 20.16927,41.58558 17.00782,64.72538 -6.52586,47.77086 -50.70183,81.32554 -98.47097,74.79796"
       id="path7544"
       style="fill:#ce123c;fill-opacity:1;fill-rule:nonzero;stroke:none" />
    <path
       d="m 382.37219,521.70674 c 31.53018,-0.1204 56.9972,-25.78006 56.87508,-57.31369 -0.12213,-31.5319 -25.78351,-56.99548 -57.31885,-56.86992 -31.53019,0.12041 -56.99204,25.78007 -56.8682,57.31369 0.12212,31.53191 25.78179,57.00064 57.31197,56.86992"
       id="path7548"
       style="fill:#ce123c;fill-opacity:1;fill-rule:nonzero;stroke:none" />
    <path
       d="m 414.53759,439.85452 c 1.68736,1.59792 3.35065,3.32141 4.92449,5.1653 4.9159,5.76043 8.29407,11.6774 9.94187,18.84311 1.03891,3.60694 1.19888,7.40309 1.07503,11.18719 -0.0568,1.57384 -0.11696,2.50267 -0.32853,4.11607 -0.0963,0.6003 -0.13244,1.3382 -0.31304,2.07954 -0.36121,2.11222 -0.94603,4.18143 -1.76477,6.06489 -0.88067,2.02105 -1.70285,3.34893 -2.986,5.11542 -0.27693,0.38529 -0.79467,0.98214 -1.19888,1.42591 -0.40421,0.44206 -0.66222,0.77403 -1.35711,1.38636 -1.1748,1.10083 -2.64544,2.0159 -4.38096,2.685 -1.25392,0.46269 -2.45279,0.76542 -3.78239,0.84798 -0.49193,0.83766 -1.17307,1.83357 -1.71833,2.69015 -2.45794,4.05759 -6.11304,7.57165 -9.96423,9.81459 -0.12728,0.0826 -0.46957,0.27349 -0.69834,0.39389 -1.5618,0.90647 -3.11328,1.68565 -4.93825,2.30659 -0.95635,0.32164 -1.79745,0.55729 -2.9602,0.84626 -0.24081,0.0636 -0.42658,0.10664 -0.89615,0.1978 -0.25285,0.0482 -0.55557,0.10149 -0.79982,0.11525 -0.51601,0.0482 -2.48719,0.20296 -3.32141,0.22704 -0.36637,0.0189 -0.83078,0.0378 -1.37776,0.0533 -1.13867,0.0189 -2.40462,-0.27004 -3.78238,-0.64501 -1.90581,-0.64502 -3.66542,-2.1277 -4.34656,-4.20208 -0.8067,-2.50783 1.13351,-4.99157 2.93096,-6.47942 1.38808,-1.43451 3.04964,-3.02728 3.88903,-4.82817 0.38529,-0.8325 0.48333,-2.71423 0.34228,-3.95095 -0.0877,-0.52117 -0.15996,-0.76542 -0.34916,-1.21779 -0.65534,-1.86281 -2.70736,-3.85118 -4.56845,-4.3328 -0.25973,-0.0722 -0.52461,-0.13932 -0.84282,-0.21156 -1.44484,-0.28381 -2.83808,-0.15825 -4.38096,0.2408 -0.72586,0.19265 -1.3898,0.5487 -2.04858,1.08707 -1.85765,1.81465 -2.56975,4.71809 -1.50848,7.2586 0.0894,0.26489 0.15136,0.41453 0.26145,0.64502 0.93226,1.83357 1.85077,3.75486 2.17242,5.88772 0.19264,1.24187 0.0808,2.43559 -0.44034,3.61382 -0.7551,1.46376 -2.29798,2.44075 -3.99739,2.82604 -1.18167,0.26488 -2.39774,0.086 -3.48309,-0.15825 -0.83766,-0.16856 -2.54567,-0.67426 -3.42633,-1.03031 -0.43518,-0.14964 -0.85143,-0.29928 -1.3038,-0.54009 -0.63986,-0.25457 -1.12491,-0.51429 -1.80433,-0.8755 -0.55557,-0.3939 -1.24703,-0.87035 -1.86453,-1.36228 -2.15178,-1.70457 -3.7411,-2.88796 -5.58155,-4.83677 -0.52634,-0.44378 -1.2436,-1.31412 -1.71145,-1.88174 -0.74994,-0.83422 -1.579,-2.35474 -2.42011,-3.72218 -0.24252,-0.40937 -0.57965,-1.02515 -0.87894,-1.76993 -0.5401,-1.34851 -0.86002,-2.64371 -1.30036,-4.4962 -0.32509,-1.36228 -0.56589,-2.71423 -0.7035,-4.14531 -0.18232,-1.9385 -0.17544,-4.15736 0.0258,-5.96857 0.17028,-0.84626 0.33712,-1.80433 0.57621,-2.70047 0.6261,-2.26702 1.34336,-4.39472 2.17242,-6.53618 0.45581,-1.03891 0.66566,-1.70629 1.09739,-2.55083 0.1548,-0.44033 0.53494,-1.05955 0.7121,-1.40012 0.29585,-0.46785 0.8497,-1.20919 1.05439,-1.55492 -0.28897,-0.60718 -0.25973,-0.64502 -0.63126,-1.63748 -0.18232,-0.46614 -0.42657,-1.19372 -0.60545,-1.78541 -0.16513,-0.5831 -0.27521,-0.89099 -0.36293,-1.23844 -0.12557,-0.46097 -0.26833,-1.06471 -0.39046,-1.73036 -0.19608,-0.87723 -0.37841,-2.07094 -0.44205,-2.90344 -0.055,-0.49022 -0.11868,-1.21264 -0.12556,-1.64437 -0.043,-1.13867 0.0413,-2.42355 0.1204,-3.19241 0.19609,-1.93505 0.50226,-3.57769 1.04579,-5.36826 0.22017,-0.7121 0.39561,-1.3468 0.7293,-2.09158 0.32681,-0.75682 0.70522,-1.3812 1.00279,-2.01934 -0.39905,-0.31132 -0.99591,-0.81186 -1.26596,-1.06987 -0.18232,-0.16684 -0.64501,-0.59513 -0.88926,-0.83594 -0.23909,-0.22532 -0.41281,-0.39561 -0.54526,-0.55729 l -0.52977,-0.55386 c -0.52461,-0.51945 -1.24015,-1.46032 -1.83701,-2.3685 -1.56696,-2.54395 -1.61512,-5.33559 -0.94603,-8.28891 0.19093,-0.55042 0.39905,-1.17823 0.62094,-1.69425 l 0.68114,-1.10599 c 0.50225,-0.84282 1.59792,-1.78713 2.03137,-2.16898 0.22877,-0.18576 0.57794,-0.44549 1.05611,-0.71726 0.40077,-0.27692 0.87379,-0.37841 1.55837,-0.72414 0.20296,-0.0963 0.52461,-0.16856 0.91162,-0.28724 0.32681,-0.0843 1.11287,-0.17545 1.46548,-0.17545 1.19371,-0.0843 2.03482,0.0602 3.19585,0.28897 0.73274,0.19952 1.4242,0.46269 1.96257,0.73102 0.27005,0.14276 0.55386,0.31821 0.7379,0.45581 1.10427,0.7379 1.9987,1.60309 2.81572,2.50095 0.69662,0.82046 1.56352,2.16726 2.1363,3.05652 0.28897,0.40593 0.71554,-0.0585 1.74585,-0.52117 3.0634,-1.3382 5.23926,-1.99698 8.23558,-2.36335 3.029,-0.37497 4.67509,-0.49537 7.60261,-0.172 3.0978,0.33885 6.01328,0.91334 8.915,2.16038 0.14449,-0.1204 0.63642,-0.52462 0.69318,-0.6261 0.31821,-0.31305 0.82047,-0.76886 1.24704,-1.06815 0.73446,-0.48677 1.45344,-0.92022 2.02449,-1.18167 1.17652,-0.55041 3.16661,-1.34508 5.1137,-1.26079 1.84389,0.17028 3.55706,0.8067 4.92622,1.94709 1.98321,1.43452 3.19929,4.05759 3.18897,6.56026 0.007,0.6691 0.0963,2.43731 -0.11353,3.19585 0.63814,0.49537 0.99419,0.76026 1.53084,1.21779 0.98731,0.83938 2.34959,2.10878 2.943,2.73143 0.22877,0.22877 0.64502,0.60374 0.79983,0.78263"
       id="path7552"
       style="fill:#000000;fill-opacity:1;fill-rule:nonzero;stroke:none" />
    <path
       d="m 407.91936,451.9074 c -0.10148,-0.72242 -0.27005,-1.36228 -0.49193,-2.36162 -0.51602,-2.33583 -1.12319,-4.67165 -1.88345,-6.83375 -0.13245,-0.31133 -0.49366,-0.26317 -0.63298,-0.0963 -0.45237,0.52117 -1.47236,0.86174 -2.29798,0.94774 -0.36121,0.012 -0.83767,-0.0361 -1.34336,-0.11868 -0.92367,-0.21673 -1.90409,-0.54353 -2.86732,-1.07331 -0.62438,-0.32165 -1.07675,-0.62954 -1.622,-0.98903 -0.53322,-0.35089 -1.01483,-0.71898 -1.4672,-1.09051 -0.51258,-0.41281 -1.20576,-1.05783 -1.77337,-1.63748 -0.98731,-0.96151 -1.86625,-2.2997 -2.50611,-3.42117 -0.44033,-0.78435 -0.75854,-1.65125 -0.87895,-2.1793 -0.13588,-0.57278 -0.11696,-1.2178 -0.0998,-1.55493 0.0688,-0.51085 0.35949,-1.20919 0.54526,-1.54976 0.28208,-0.54869 0.43345,-0.81874 0.7637,-1.31068 0.2494,-0.34056 0.60545,-0.8325 0.82046,-1.08191 -0.31305,-0.14964 -0.58998,-0.24596 -0.83766,-0.3612 -0.40249,-0.15481 -0.68974,-0.27349 -1.12147,-0.41454 -0.23393,-0.0671 -0.50054,-0.17716 -0.90475,-0.30272 -0.39733,-0.11009 -0.68458,-0.20469 -1.13867,-0.32337 -0.7981,-0.22017 -1.35024,-0.29929 -2.20854,-0.48678 -2.0245,-0.34573 -3.72218,-0.54697 -5.75872,-0.55213 -0.22704,-0.005 -0.86346,0.0361 -1.23671,0.0482 -0.24769,0.0103 -0.7981,0.0533 -1.15071,0.086 -0.37497,0.0447 -1.32788,0.14449 -1.80089,0.20297 -1.2006,0.13932 -2.59211,0.34573 -3.95955,0.72586 -0.24941,0.0516 -0.53322,0.15308 -0.74306,0.20812 -2.74004,0.7895 -4.67165,1.63577 -7.14164,3.15285 -0.44205,0.27865 -0.86862,0.49365 -1.13523,0.6863 -1.27455,0.8583 -3.17176,2.4373 -3.94923,3.12532 -0.28896,0.22189 -0.50225,0.47646 -0.83078,0.82735 -1.85421,1.97117 -3.53986,4.13499 -4.97781,6.33493 -0.22533,0.35433 -0.31305,0.47473 -0.4197,0.65706 -0.21328,0.33885 -0.49193,0.79294 -0.64329,1.10427 -0.19265,0.35777 -0.7207,1.44312 -0.90475,1.91613 -0.49021,1.26079 -0.97355,2.86732 -1.28487,4.41192 -0.0688,0.35777 -0.19093,0.92711 -0.22017,1.24876 -0.0688,0.50569 -0.18404,1.52052 -0.23221,2.15865 -0.0327,0.42142 -0.074,1.41388 -0.0774,1.93334 0.055,1.01999 0.0344,2.25498 0.22705,3.33001 0.20296,2.06062 0.79122,3.99567 1.10255,4.95889 0.215,0.68286 0.56589,1.63749 0.77918,2.20338 0.51945,1.278 1.31928,2.49407 2.06578,3.66887 0.29584,0.45237 0.53149,0.90474 0.83078,1.33991 2.65059,3.87699 6.35557,7.18808 9.80771,10.26008 1.44484,1.21264 3.51577,2.15694 4.17455,2.48891 2.15006,0.96151 3.76346,1.27972 5.843,1.61685 0.92539,0.0619 1.84389,0.0808 2.7796,-0.0292 0.76198,-0.12556 1.30895,-0.2494 1.87829,-0.44205 2.08814,-0.84798 4.67337,-1.94537 6.78042,-2.81227 0.5917,-0.23049 1.1662,-0.55214 1.71833,-0.78435 0.37497,-0.172 1.13523,-0.55385 1.62373,-0.86174 1.09567,-0.62954 1.69252,-0.91334 2.36678,-1.39496 0.55386,-0.29929 1.62717,-1.06815 2.09158,-1.37776 1.83013,-1.19199 3.72906,-2.68499 5.30118,-4.12983 0.65534,-0.55729 1.26596,-1.14899 1.72177,-1.67188 1.36916,-1.41216 2.8054,-3.32142 3.82883,-5.09822 0.92194,-1.41732 1.73896,-3.33174 2.40118,-5.03114 0.23565,-0.60202 0.40421,-1.09739 0.55386,-1.78369 0.45065,-1.95741 0.62609,-2.77788 0.64501,-4.86429 0.012,-0.67942 -0.012,-0.98903 -0.10836,-1.62201"
       id="path7556"
       style="fill:#ffffff;fill-opacity:1;fill-rule:nonzero;stroke:none" />
    <path
       d="m 429.34616,463.18523 c 0.28381,1.10255 0.47817,1.9643 0.66394,3.14769 0.17544,1.09223 0.29069,2.31002 -0.32165,3.36441 -0.19265,0.37153 -0.30789,0.54354 -0.53666,0.95119 -1.6822,2.97224 -4.98469,4.50824 -8.19774,4.31044 -0.5659,-0.0722 -1.27627,-0.10665 -1.33648,-0.90991 -0.15652,-4.91245 -0.69662,-9.85759 -1.84733,-14.59632 -0.39561,-1.78885 -0.9701,-3.52609 -1.55664,-5.1825 -0.36465,-0.94259 -0.76198,-1.85765 -1.25047,-2.82948 -0.38701,-0.77746 -0.80327,-1.5618 -1.18684,-2.2825 -0.20124,-0.32165 -0.35949,-0.62094 -0.56073,-0.90818 -1.16447,-1.72693 -2.1191,-3.18209 -3.42806,-4.74217 -0.69317,-0.90991 -1.59104,-1.72521 -2.43214,-2.44075 -0.50226,-0.48161 -0.0808,-1.07503 0.27521,-1.87657 0.25972,-0.57794 0.45753,-1.03203 0.68629,-1.62201 0.15137,-0.36293 0.27693,-0.70866 0.4455,-1.18167 0.19608,-0.56589 0.28036,-1.00451 0.40765,-1.48612 0.65706,0.47989 1.15759,0.90818 1.62544,1.32444 3.51062,3.18208 6.99543,6.5465 10.1328,10.44928 0.65878,0.81014 1.06299,1.34336 1.42592,1.87313 0.26317,0.36121 0.77058,1.05439 1.11803,1.58417 0.5917,0.9099 1.32272,2.10705 1.81637,3.01524 0.68114,1.24359 1.35196,2.51987 1.96085,3.85291 0.44893,0.96322 0.90991,2.25842 1.24016,3.23024 0.29756,0.83251 0.7121,2.40119 0.85658,2.95504"
       id="path7560"
       style="fill:#ffffff;fill-opacity:1;fill-rule:nonzero;stroke:none" />
    <path
       d="m 363.98729,452.18657 c 0.5315,-0.14449 1.52053,-0.38702 2.33755,0.21672 0.86346,0.92883 1.36228,2.46999 1.65124,3.72046 0.19781,0.58998 0.33885,1.11115 0.45926,1.77681 0.32508,1.66501 -0.65362,3.28185 -1.49473,4.436 -0.76886,1.01311 -1.24531,1.84733 -1.70456,2.56631 -0.28897,0.4283 -0.6261,1.01139 -0.81874,1.40872 -0.39561,0.77746 -0.31305,1.05095 -0.82391,1.70113 -0.34401,0.38013 -0.7981,0.66738 -1.31239,0.7465 -1.73209,-0.0912 -2.68672,-1.89205 -3.49514,-3.23885 -0.16512,-0.33541 -0.28725,-0.6175 -0.40077,-1.04923 -0.13416,-0.56933 -0.22533,-1.26251 -0.1978,-1.82325 0.0464,-3.1408 1.04406,-6.10445 3.16144,-8.59163 0.46097,-0.48334 0.7895,-0.93571 1.40528,-1.28316 0.45409,-0.32337 0.85314,-0.49537 1.23327,-0.58653"
       id="path7564"
       style="fill:#000000;fill-opacity:1;fill-rule:nonzero;stroke:none" />
    <path
       d="m 388.67995,469.6447 c 0.39733,-0.34917 0.65189,-0.71898 1.05955,-1.29692 0.46785,-0.69145 0.60889,-1.00794 0.83422,-1.4414 0.15136,-0.29584 0.33197,-0.64501 0.50741,-1.12663 0.22189,-0.6863 0.27521,-0.89614 0.36809,-1.45688 0.13589,-0.58481 0.15653,-0.93742 0.24597,-1.4414 0.29929,-1.68908 -0.45409,-3.42117 -1.31412,-4.82817 -0.62609,-1.03375 -1.43108,-2.25154 -2.36506,-3.08404 -0.87379,-0.79982 -1.95226,-1.46376 -2.72628,-1.85421 -0.45065,-0.21329 -0.79466,-0.32681 -1.21779,-0.45754 -0.60202,-0.0946 -1.38292,-0.22876 -2.30314,0.30445 -0.4455,0.17717 -0.91507,0.56074 -1.11115,0.87551 -0.16685,0.2064 -0.35261,0.47645 -0.55558,0.79466 -1.21263,2.1535 -1.52052,4.87633 -0.23737,7.11927 0.18577,0.33197 0.25973,0.52462 0.45754,0.78434 1.01655,1.1834 1.5704,2.44419 2.13802,3.40226 l 0.37669,0.72758 c 0.29756,0.63814 0.56761,1.63576 0.97354,2.17758 0.6089,0.8927 1.23844,1.49472 2.2481,1.51708 0.34917,0.0447 0.83251,0.0516 1.27284,-0.005 0.28553,-0.0533 0.56245,-0.15653 0.76542,-0.27693 0.18921,-0.11008 0.42141,-0.27693 0.5831,-0.43345"
       id="path7568"
       style="fill:#000000;fill-opacity:1;fill-rule:nonzero;stroke:none" />
    <path
       d="m 369.0991,474.62682 c 2.1363,0.68285 4.35344,0.99074 6.90427,0.82734 0.29585,-0.0241 0.6003,-0.043 0.93399,-0.043 0.58481,0.0189 1.21263,-0.19781 1.57556,0.71726 0.074,0.51945 -0.074,0.99246 -0.55386,1.18855 -0.54353,0.28381 -0.89098,0.34745 -1.39151,0.37153 -0.29757,0 -0.75854,0.0568 -1.05267,-0.0396 -0.36809,-0.0963 -0.82218,-0.1204 -0.93399,0.0533 -0.62265,0.73274 0.46958,2.26186 -0.8497,2.55083 -0.71898,0.0877 -1.00795,-0.21673 -1.36916,-0.68286 -0.64846,-0.80326 -1.09051,-1.68909 -1.90753,-2.35818 -0.21501,-0.15997 -0.45237,-0.32337 -0.76026,-0.37669 -1.06815,-0.18233 -1.94365,-0.27865 -2.29282,-1.41044 -0.12729,-0.44721 0.14448,-0.85659 0.42141,-0.98559 0.30101,-0.0963 0.50913,-0.043 0.77746,0.0378 l 0.49881,0.14965 z"
       id="path7572"
       style="fill:#000000;fill-opacity:1;fill-rule:nonzero;stroke:none" />
    <path
       d="m 362.86806,462.74731 c 0.8153,-0.005 1.46892,-0.6691 1.46376,-1.48096 -0.003,-0.8153 -0.66394,-1.46892 -1.4758,-1.46032 -0.81358,0 -1.46892,0.65706 -1.46892,1.47064 0.005,0.81358 0.66566,1.47236 1.48096,1.47064"
       id="path7576"
       style="fill:#ffffff;fill-opacity:1;fill-rule:nonzero;stroke:none" />
    <path
       d="m 385.02657,463.46921 c 0.81358,0 1.47064,-0.66909 1.46376,-1.47752 -0.003,-0.81874 -0.66738,-1.47064 -1.47408,-1.46892 -0.82047,0 -1.47236,0.66566 -1.4672,1.47752 0,0.81015 0.65877,1.47408 1.47752,1.46892"
       id="path7580"
       style="fill:#ffffff;fill-opacity:1;fill-rule:nonzero;stroke:none" />
    <path
       d="m 300.62231,459.08653 0.70866,-5.16702 c 0.68286,-4.95717 3.02212,-7.00747 7.42544,-6.40201 3.95611,0.54181 5.98232,3.26293 5.42331,7.31708 l -0.23049,1.6736 6.84407,0.94431 -0.5917,4.32764 -19.57929,-2.6936 z m 9.62538,-3.08748 0.15652,-1.11631 c 0.20469,-1.48956 -0.27864,-2.76756 -2.3255,-3.04792 -1.99181,-0.27349 -2.80196,0.8239 -3.00836,2.31346 l -0.15309,1.11803 5.33043,0.73274 z"
       id="path7584"
       style="fill:#000000;fill-opacity:1;fill-rule:nonzero;stroke:none" />
    <path
       d="m 304.88579,438.29977 1.87485,-5.01566 20.72313,1.00107 -1.67877,4.48588 -4.37924,-0.33197 -2.15866,5.76732 3.49858,2.69015 -1.55321,4.15907 -16.32668,-12.75586 z m 4.75765,-1.08363 -0.0206,0.0464 6.49834,4.68885 1.44311,-3.85291 -7.92081,-0.88238 z"
       id="path7588"
       style="fill:#000000;fill-opacity:1;fill-rule:nonzero;stroke:none" />
    <path
       d="m 312.72679,420.99575 3.36958,-4.436 14.04074,3.70842 0.0258,-0.0378 -10.72449,-8.0653 2.41494,-3.18209 15.73156,11.95949 -3.28529,4.32247 -14.21963,-3.60693 -0.0275,0.0361 10.83801,8.06014 -2.43386,3.19756 -15.72984,-11.95604 z"
       id="path7592"
       style="fill:#000000;fill-opacity:1;fill-rule:nonzero;stroke:none" />
    <path
       d="m 328.28135,402.69015 4.83161,-3.50374 c 4.62349,-3.35065 9.12141,-3.95439 13.60558,2.23262 4.33968,5.98405 2.52331,10.48197 -2.00558,13.76382 l -4.82989,3.50717 -11.60172,-15.99987 z m 12.84531,10.26696 1.37088,-0.99075 c 2.64199,-1.91957 2.92924,-4.64241 0.61922,-7.83137 -2.31002,-3.18209 -5.04834,-3.71703 -7.63529,-1.83873 l -1.36744,0.99074 7.01263,9.67011 z"
       id="path7604"
       style="fill:#000000;fill-opacity:1;fill-rule:nonzero;stroke:none" />
    <path
       d="m 351.5302,388.66144 5.02769,-1.85937 12.78683,16.34045 -4.4962,1.66156 -2.61275,-3.53297 -5.7742,2.1363 0.25629,4.40504 -4.16768,1.5446 -1.01998,-20.69561 z m 3.92686,2.89312 -0.043,0.0172 0.69834,7.98102 3.85635,-1.42592 -4.51169,-6.5723 z"
       id="path7608"
       style="fill:#000000;fill-opacity:1;fill-rule:nonzero;stroke:none" />
    <path
       d="m 378.75717,382.53154 11.55699,0.30273 -0.098,3.73766 -7.19152,-0.18921 -0.10664,4.07652 6.78731,0.17888 -0.0946,3.73422 -6.78902,-0.17716 -0.11525,4.4704 7.44609,0.19781 -0.0998,3.73594 -11.81673,-0.31305 0.52118,-19.75474 z"
       id="path7612"
       style="fill:#000000;fill-opacity:1;fill-rule:nonzero;stroke:none" />
    <path
       d="m 399.46206,393.99015 -2.00901,-10.30824 4.90729,1.39151 0.86174,7.01264 4.49277,-5.49383 4.61316,1.30895 -7.17087,7.70409 2.22574,11.4366 -5.01738,-1.42592 -1.06471,-7.86406 -5.02082,6.13885 -4.76453,-1.35368 7.94662,-8.54691 z"
       id="path7616"
       style="fill:#000000;fill-opacity:1;fill-rule:nonzero;stroke:none" />
    <path
       d="m 418.74689,390.90714 4.4962,2.64027 c 4.3156,2.53363 5.30806,5.48007 3.05824,9.31405 -2.01933,3.44354 -5.3115,4.26744 -8.8376,2.1965 l -1.4586,-0.85658 -3.49686,5.95996 -3.76862,-2.21542 10.00724,-17.03878 z m -0.84627,10.07259 0.96839,0.56934 c 1.29863,0.76026 2.66435,0.80842 3.7067,-0.97355 1.01999,-1.73553 0.31821,-2.9 -0.98215,-3.66198 l -0.97182,-0.57278 -2.72112,4.63897 z"
       id="path7628"
       style="fill:#000000;fill-opacity:1;fill-rule:nonzero;stroke:none" />
    <path
       d="m 434.06098,400.67821 5.65896,5.3717 c 2.10705,2.0073 2.74003,4.79206 0.39905,7.25688 -1.81293,1.90753 -3.77207,2.47171 -5.71228,1.44656 l -0.0361,0.0378 c 0.71038,1.30208 -0.25629,2.45451 -1.321,4.76453 l -2.54051,5.0019 -3.30765,-3.14081 1.77337,-3.23368 c 1.69253,-3.07889 1.87141,-4.0834 0.69146,-5.19971 l -0.66222,-0.63297 -5.38374,5.66755 -3.16661,-3.00492 13.60729,-14.33487 z m -2.48375,8.96316 0.83251,0.79294 c 1.02342,0.97355 2.35818,2.16038 3.89934,0.5401 1.26252,-1.33304 0.39217,-2.63339 -0.81702,-3.78066 l -0.83422,-0.79467 -3.08061,3.24229 z"
       id="path7632"
       style="fill:#000000;fill-opacity:1;fill-rule:nonzero;stroke:none" />
    <path
       d="m 448.16176,415.4412 6.24721,9.72687 -3.14425,2.02105 -3.88215,-6.05456 -3.43493,2.2051 3.67058,5.71399 -3.14597,2.01934 -3.66714,-5.71572 -3.76518,2.41495 4.02147,6.26957 -3.14081,2.01933 -6.38653,-9.94359 16.6277,-10.67633 z"
       id="path7636"
       style="fill:#000000;fill-opacity:1;fill-rule:nonzero;stroke:none" />
    <path
       d="m 443.67329,436.92803 c -0.31477,1.30895 -0.32681,2.98256 0.27349,4.68885 0.46269,1.30895 1.22123,2.43558 2.71595,1.90581 3.46934,-1.22296 -1.30035,-7.76429 5.48523,-10.15688 4.48589,-1.58416 6.99372,1.61684 8.08767,4.72153 0.52289,1.48612 0.77058,3.04104 0.71554,4.23132 l -3.94063,1.09223 c 0.20984,-1.2694 0.055,-2.55943 -0.35605,-3.73423 -0.37325,-1.04235 -1.08707,-2.73487 -2.71424,-2.15866 -3.01868,1.06643 1.59277,7.66109 -5.13606,10.03304 -4.83161,1.70629 -7.32568,-1.19887 -8.53831,-4.63553 -0.51086,-1.43968 -0.87379,-3.32829 -0.82562,-4.89009 l 4.23303,-1.09739 z"
       id="path7648"
       style="fill:#000000;fill-opacity:1;fill-rule:nonzero;stroke:none" />
    <path
       d="m 448.35904,451.7053 c -0.61405,1.19887 -1.00794,2.82603 -0.8153,4.6252 0.14621,1.37776 0.62266,2.6506 2.19994,2.48375 3.66026,-0.39217 0.52806,-7.85545 7.68001,-8.62088 4.72497,-0.50053 6.4347,3.19241 6.78043,6.46222 0.16512,1.56696 0.0482,3.13565 -0.28381,4.28464 l -4.08339,0.15136 c 0.50053,-1.18683 0.64674,-2.47858 0.51429,-3.71874 -0.11696,-1.09395 -0.42485,-2.90516 -2.14146,-2.72627 -3.18208,0.34229 -0.21672,7.82105 -7.31364,8.58131 -5.09478,0.54526 -6.85266,-2.86388 -7.23795,-6.48286 -0.16341,-1.51708 -0.0808,-3.44181 0.32336,-4.95029 l 4.37752,-0.0894 z"
       id="path7652"
       style="fill:#000000;fill-opacity:1;fill-rule:nonzero;stroke:none" />
    <path
       d="m 312.10465,472.45577 -2.28766,-1.57384 -1.57212,2.28594 2.28078,1.57385 1.579,-2.28595 z"
       id="path7656"
       style="fill:#000000;fill-opacity:1;fill-rule:nonzero;stroke:none" />
    <path
       d="m 456.21708,473.59668 -1.48784,-2.34442 -2.34099,1.48784 1.48441,2.33926 2.34442,-1.48268 z"
       id="path7660"
       style="fill:#000000;fill-opacity:1;fill-rule:nonzero;stroke:none" />
    <path
       d="m 319.55469,481.41361 c 3.57598,13.222 11.4538,25.22449 22.18517,33.79204 11.38671,9.09389 25.22965,13.93582 40.03926,14.00462 29.43688,0.15137 55.27027,-19.45717 62.82644,-47.6883 l -1.78713,-0.47645 c -7.33772,27.41755 -32.43149,46.46363 -61.03071,46.31742 -14.3882,-0.0671 -27.83724,-4.77141 -38.89371,-13.60041 -10.42692,-8.32503 -18.08113,-19.98523 -21.55563,-32.83054 l -1.78369,0.48162 z"
       id="path7672"
       style="fill:#ce123c;fill-opacity:1;fill-rule:nonzero;stroke:none" />
    <path
       d="m 314.76643,492.67699 c 0.0929,-0.89958 -0.0826,-1.96945 -0.36121,-2.77272 -0.80671,-2.34442 -2.83636,-3.0892 -4.88838,-2.38226 -2.04341,0.70178 -3.14768,2.50267 -2.40806,4.64069 0.1892,0.54869 0.39733,0.95806 0.60201,1.27455 l 2.61447,-0.90474 -0.73274,-2.12254 1.58245,-0.5487 1.39668,4.05243 -5.40439,1.86798 c -0.65534,-0.96667 -1.26768,-1.99354 -1.63749,-3.07029 -1.12491,-3.24917 -0.2752,-6.07005 3.11845,-7.23968 3.43493,-1.18511 6.08381,0.24941 7.2586,3.65854 0.40249,1.16447 0.56073,2.14146 0.60373,3.08921 l -1.74412,0.45753 z"
       id="path7676"
       style="fill:#000000;fill-opacity:1;fill-rule:nonzero;stroke:none" />
    <path
       d="m 319.94944,498.20763 c 1.56353,2.93612 0.45754,5.64691 -2.37882,7.15368 -2.8312,1.50504 -5.73464,0.96666 -7.31364,-2.00386 -1.60137,-2.99804 -0.44377,-5.65035 2.43043,-7.1812 2.86903,-1.53084 5.67271,-0.9529 7.26203,2.03138 m -8.21666,4.37064 c 1.02171,1.92129 3.10296,1.72349 4.79721,0.8239 1.65125,-0.88238 2.93612,-2.54223 1.94193,-4.4102 -0.99246,-1.87141 -3.09264,-1.72693 -4.74389,-0.85658 -1.68908,0.90474 -3.01696,2.52159 -1.99525,4.44288"
       id="path7680"
       style="fill:#000000;fill-opacity:1;fill-rule:nonzero;stroke:none" />
    <path
       d="m 323.10332,504.1282 1.28316,1.69941 -4.8987,3.68262 c -1.44656,1.09223 -2.04513,2.26702 -1.06471,3.56566 0.97699,1.29519 2.27391,1.04923 3.71875,-0.0378 l 4.89525,-3.68778 1.28144,1.6994 -5.41987,4.08168 c -2.26875,1.70972 -4.17284,1.12663 -5.81204,-1.04923 -1.63749,-2.1707 -1.67361,-4.16768 0.60029,-5.8774 l 5.41643,-4.07652 z"
       id="path7684"
       style="fill:#000000;fill-opacity:1;fill-rule:nonzero;stroke:none" />
    <path
       d="m 329.67132,512.52754 1.62373,1.622 c 1.60996,1.61685 3.58974,3.48998 1.5016,5.57467 -0.88067,0.88067 -2.2051,1.01999 -3.29045,0.19093 l -0.0224,0.0206 c 0.37841,0.44205 0.20468,1.08707 0.0224,1.56868 l -1.73209,4.14016 -1.67877,-1.67533 1.44312,-3.24917 c 0.34401,-0.77574 0.36465,-1.18511 -0.26832,-1.81465 l -0.48506,-0.48677 -3.11672,3.115 -1.50676,-1.50676 7.50972,-7.4994 z m -1.70112,4.70777 0.49537,0.50053 c 0.74306,0.73618 1.69769,1.48268 2.63339,0.54354 0.90647,-0.90475 0.14105,-1.81465 -0.61234,-2.56976 l -0.49365,-0.49193 -2.02277,2.01762 z"
       id="path7688"
       style="fill:#000000;fill-opacity:1;fill-rule:nonzero;stroke:none" />
    <path
       d="m 336.05992,518.97255 2.75896,1.99698 -2.66608,7.99994 0.0258,0.0155 6.75635,-5.03974 2.76068,1.99698 -6.2197,8.59679 -1.6478,-1.18855 5.12746,-7.10036 -0.0206,-0.0189 -7.44952,5.42503 -1.65125,-1.19371 2.814,-8.77052 -0.043,0.005 -5.1137,7.07627 -1.65125,-1.19371 6.21969,-8.60712 z"
       id="path7692"
       style="fill:#000000;fill-opacity:1;fill-rule:nonzero;stroke:none" />
    <path
       d="m 347.61313,526.84263 5.585,2.84496 -0.75854,1.48784 -3.68779,-1.87313 -1.18511,2.32894 3.37473,1.71833 -0.75682,1.48784 -3.37817,-1.71317 -1.34852,2.65747 3.71359,1.8869 -0.75854,1.48612 -5.6108,-2.8484 4.81097,-9.4637 z"
       id="path7696"
       style="fill:#000000;fill-opacity:1;fill-rule:nonzero;stroke:none" />
    <path
       d="m 356.47361,532.7823 -2.85872,-1.04407 0.5745,-1.56525 7.71269,2.81572 -0.57105,1.57385 -2.857,-1.04407 -3.07201,8.39555 -1.99869,-0.72758 3.07028,-8.40415 z"
       id="path7700"
       style="fill:#000000;fill-opacity:1;fill-rule:nonzero;stroke:none" />
    <path
       d="m 374.80536,546.09133 c -0.79638,0.0722 -1.64609,0.0963 -2.44419,-0.0189 -3.40053,-0.49537 -5.51619,-2.53707 -5.00018,-6.08896 0.52462,-3.59662 3.01181,-5.29431 6.5809,-4.77486 0.69146,0.10149 1.59105,0.36981 2.31175,0.77919 l -0.40937,1.75788 c -0.7293,-0.57277 -1.43624,-0.7809 -2.1879,-0.89098 -2.16726,-0.31305 -3.76175,1.14555 -4.07651,3.29733 -0.30961,2.1363 0.7809,3.93719 3.0204,4.264 0.8325,0.1204 1.83701,0.0877 2.36678,-0.10149 l -0.16168,1.77681 z"
       id="path7712"
       style="fill:#000000;fill-opacity:1;fill-rule:nonzero;stroke:none" />
    <path
       d="m 377.67543,535.82936 2.12942,0.0103 -0.0189,4.28808 4.25883,0.0189 0.0172,-4.29324 2.1277,0.0103 -0.0396,10.61785 -2.12942,-0.0103 0.0172,-4.65445 -4.25711,-0.0189 -0.0206,4.65961 -2.12598,-0.0103 0.0413,-10.61785 z"
       id="path7716"
       style="fill:#000000;fill-opacity:1;fill-rule:nonzero;stroke:none" />
    <path
       d="m 388.59584,535.57428 2.12081,-0.21673 1.09395,10.55077 -2.11737,0.22189 -1.09739,-10.55593 z"
       id="path7720"
       style="fill:#000000;fill-opacity:1;fill-rule:nonzero;stroke:none" />
    <path
       d="m 393.01446,535.16989 2.55599,-0.54869 5.62972,6.90771 0.0275,-0.005 -1.66845,-7.75913 1.99182,-0.4283 2.2309,10.37705 -2.54051,0.54353 -5.64519,-6.90255 -0.0275,0.005 1.67017,7.75398 -1.98837,0.43345 -2.23607,-10.37705 z"
       id="path7724"
       style="fill:#000000;fill-opacity:1;fill-rule:nonzero;stroke:none" />
    <path
       d="m 403.63782,532.6428 5.89116,-2.1363 0.5659,1.57385 -3.88903,1.40527 0.89442,2.45967 3.55706,-1.28487 0.56934,1.57384 -3.5605,1.29003 1.01827,2.79508 3.91827,-1.41904 0.56761,1.57384 -5.91524,2.14146 -3.61726,-9.97283 z"
       id="path7728"
       style="fill:#000000;fill-opacity:1;fill-rule:nonzero;stroke:none" />
    <path
       d="m 417.51,528.77751 c -0.7293,0.0482 -1.46548,0.23565 -2.1363,0.56762 -0.65018,0.33197 -1.3468,1.04406 -0.82734,2.07437 0.83422,1.64265 4.63897,-1.14899 6.24377,2.02278 1.04923,2.07954 -0.19437,3.69638 -2.11222,4.66305 -1.02859,0.52117 -1.56008,0.61749 -2.61275,0.86174 l -0.68974,-1.79917 c 0.83078,0.0241 1.69597,-0.1204 2.44075,-0.50053 0.7207,-0.36121 1.49644,-1.2178 1.06815,-2.07094 -0.91679,-1.80433 -4.69057,1.03547 -6.27645,-2.0933 -1.07159,-2.11394 0.1806,-3.72562 1.84733,-4.56844 0.81702,-0.40937 1.6306,-0.68802 2.44074,-0.80842 l 0.61406,1.65124 z"
       id="path7740"
       style="fill:#000000;fill-opacity:1;fill-rule:nonzero;stroke:none" />
    <path
       d="m 419.02123,525.66337 5.21863,-3.47106 0.92366,1.39152 -3.44009,2.2911 1.45172,2.18102 3.15112,-2.10362 0.92883,1.39152 -3.15113,2.09846 1.65297,2.48375 3.46589,-2.31519 0.93227,1.39496 -5.23927,3.48998 -5.8946,-8.83244 z"
       id="path7744"
       style="fill:#000000;fill-opacity:1;fill-rule:nonzero;stroke:none" />
    <path
       d="m 430.33553,517.11955 4.18832,-4.16424 1.17307,1.19028 -2.67124,2.66091 1.84218,1.85421 2.54394,-2.52847 1.18168,1.17995 -2.54395,2.53191 3.27669,3.30249 -1.5102,1.5016 -7.48049,-7.52864 z"
       id="path7748"
       style="fill:#000000;fill-opacity:1;fill-rule:nonzero;stroke:none" />
    <path
       d="m 438.3279,508.02222 c 2.02966,-2.64199 4.94514,-2.75896 7.49253,-0.80326 2.54567,1.94881 3.26293,4.81785 1.21435,7.48392 -2.07094,2.70564 -4.96234,2.74348 -7.54757,0.76542 -2.57663,-1.97805 -3.21648,-4.76969 -1.15931,-7.44608 m 7.38416,5.66067 c 1.31928,-1.72348 0.27865,-3.53297 -1.24187,-4.70261 -1.48268,-1.14039 -3.53126,-1.61684 -4.81785,0.0568 -1.28832,1.67532 -0.29757,3.53469 1.18855,4.67508 1.52052,1.16448 3.5433,1.69941 4.87117,-0.0292"
       id="path7760"
       style="fill:#000000;fill-opacity:1;fill-rule:nonzero;stroke:none" />
    <path
       d="m 444.50356,498.47716 c 1.579,-2.93612 4.4446,-3.51406 7.27236,-1.99353 2.82604,1.52224 3.98535,4.23647 2.39602,7.19667 -1.61512,2.99805 -4.46524,3.5089 -7.32912,1.95914 -2.86388,-1.53945 -3.93718,-4.19176 -2.33926,-7.16228 m 8.19258,4.41364 c 1.03031,-1.91957 -0.2838,-3.5433 -1.97117,-4.45148 -1.64781,-0.89098 -3.74798,-1.03031 -4.74905,0.82734 -1.00107,1.86281 0.27521,3.53298 1.92129,4.42396 1.68737,0.90475 3.77035,1.11115 4.79893,-0.79982"
       id="path7764"
       style="fill:#000000;fill-opacity:1;fill-rule:nonzero;stroke:none" />
    <path
       d="m 447.70439,492.50378 0.96323,-2.74347 c 1.07847,-3.06685 3.0634,-5.41471 7.03671,-4.02491 3.97159,1.39667 4.05759,4.47212 2.97741,7.5424 l -0.96495,2.74004 -10.0124,-3.51406 z m 9.13861,0.95291 0.3939,-1.11631 c 0.58825,-1.68049 -0.0894,-3.74111 -2.26875,-4.50997 -2.18102,-0.76542 -4.00083,0.41797 -4.58736,2.09846 l -0.39217,1.11631 6.85438,2.41151 z"
       id="path7768"
       style="fill:#000000;fill-opacity:1;fill-rule:nonzero;stroke:none" />
  </g>
</svg>
